<svg xmlns="http://www.w3.org/2000/svg" viewBox="0 0 32 32" width="32" height="32">
  <defs>
    <radialGradient id="galaxyCore32" cx="50%" cy="50%" r="50%">
      <stop offset="0%" stop-color="#FFD700" stop-opacity="0.9"/>
      <stop offset="30%" stop-color="#FFA500" stop-opacity="0.7"/>
      <stop offset="70%" stop-color="#4A90E2" stop-opacity="0.5"/>
      <stop offset="100%" stop-color="#1E3A8A" stop-opacity="0.3"/>
    </radialGradient>
    <linearGradient id="dnaGradient32" x1="0%" y1="0%" x2="100%" y2="100%">
      <stop offset="0%" stop-color="#60A5FA"/>
      <stop offset="50%" stop-color="#A855F7"/>
      <stop offset="100%" stop-color="#EC4899"/>
    </linearGradient>
  </defs>
  
  <rect width="32" height="32" fill="#0F172A" rx="4"/>
  <circle cx="16" cy="16" r="14" fill="url(#galaxyCore32)" opacity="0.6"/>
  
  <!-- Simplified DNA helix for smaller size -->
  <g transform="translate(16,16)">
    <path d="M -4 -6 Q -2 -3 0 0 Q 2 3 4 6" 
          fill="none" stroke="url(#dnaGradient32)" stroke-width="1.5" opacity="0.8"/>
    <path d="M 4 -6 Q 2 -3 0 0 Q -2 3 -4 6" 
          fill="none" stroke="url(#dnaGradient32)" stroke-width="1.5" opacity="0.8"/>
    <line x1="-3" y1="-4" x2="3" y2="-4" stroke="#FFFFFF" stroke-width="0.5" opacity="0.6"/>
    <line x1="-2" y1="0" x2="2" y2="0" stroke="#FFFFFF" stroke-width="0.5" opacity="0.6"/>
    <line x1="-3" y1="4" x2="3" y2="4" stroke="#FFFFFF" stroke-width="0.5" opacity="0.6"/>
  </g>
  
  <!-- Data points -->
  <circle cx="8" cy="8" r="1" fill="#60A5FA" opacity="0.8"/>
  <circle cx="24" cy="8" r="1" fill="#60A5FA" opacity="0.8"/>
  <circle cx="8" cy="24" r="1" fill="#60A5FA" opacity="0.8"/>
  <circle cx="24" cy="24" r="1" fill="#60A5FA" opacity="0.8"/>
  
  <!-- Stars -->
  <circle cx="6" cy="6" r="0.3" fill="#FFFFFF" opacity="0.8"/>
  <circle cx="26" cy="6" r="0.3" fill="#FFFFFF" opacity="0.6"/>
  <circle cx="6" cy="26" r="0.3" fill="#FFFFFF" opacity="0.7"/>
  <circle cx="26" cy="26" r="0.3" fill="#FFFFFF" opacity="0.8"/>
</svg>
